<svg xmlns="http://www.w3.org/2000/svg" viewBox="0 0 100 100" fill="none">
  <defs>
    <linearGradient id="aeroGrad" x1="0%" y1="0%" x2="100%" y2="100%">
      <stop offset="0%" stop-color="#38bdf8"/>
      <stop offset="50%" stop-color="#06b6d4"/>
      <stop offset="100%" stop-color="#0891b2"/>
    </linearGradient>
    <linearGradient id="glowGrad" x1="0%" y1="0%" x2="100%" y2="100%">
      <stop offset="0%" stop-color="#22d3ee" stop-opacity="0.8"/>
      <stop offset="100%" stop-color="#0284c7" stop-opacity="0.2"/>
    </linearGradient>
  </defs>
  <rect width="100" height="100" rx="24" fill="#0f172a"/>
  <rect x="4" y="4" width="92" height="92" rx="20" stroke="url(#aeroGrad)" stroke-width="2" stroke-opacity="0.5"/>
  <path d="M50 16L78 68C78 68 66 60 50 64C34 60 22 68 22 68L50 16Z" fill="url(#aeroGrad)"/>
  <path d="M50 28L68 64C62 59 56 60 50 60C44 60 38 59 32 64L50 28Z" fill="#0f172a" fill-opacity="0.4"/>
  <circle cx="50" cy="52" r="6" fill="#ffffff"/>
  <circle cx="50" cy="52" r="12" stroke="#38bdf8" stroke-width="2" stroke-dasharray="2 3"/>
  <path d="M30 76C42 72 58 72 70 76" stroke="#38bdf8" stroke-width="3" stroke-linecap="round"/>
</svg>
